<?xml version="1.0" encoding="utf-8"?><svg viewBox="0 0 800 800" xmlns="http://www.w3.org/2000/svg" xmlns:xlink="http://www.w3.org/1999/xlink"><style>:root>svg{display:none}:root>svg:target{display:block}</style><svg viewBox="0 0 511 511" id="about" xmlns="http://www.w3.org/2000/svg"><path d="M511 163.498V123.5c0-12.958-10.542-23.5-23.5-23.5h-464C10.542 100 0 110.542 0 123.5v224C0 360.458 10.542 371 23.5 371h73.098c3.607 22.64 23.263 40 46.902 40s43.295-17.36 46.902-40h178.195c3.607 22.64 23.263 40 46.902 40s43.295-17.36 46.902-40H487.5c12.958 0 23.5-10.542 23.5-23.5v-68.725a71.284 71.284 0 00-4.305-24.435l-24.489-67.343h5.293c12.959.001 23.501-10.541 23.501-23.499zM15 347.5v-224c0-4.687 3.813-8.5 8.5-8.5h464c4.687 0 8.5 3.813 8.5 8.5v39.998c0 4.687-3.813 8.5-8.5 8.5h-16l-.048.002H399.5c-17.369 0-31.5 14.131-31.5 31.5V356H190.402c-3.607-22.64-23.263-40-46.902-40s-43.295 17.36-46.902 40H23.5c-4.687 0-8.5-3.813-8.5-8.5zM496 308h-8.5c-4.687 0-8.5-3.813-8.5-8.5s3.813-8.5 8.5-8.5h8.5v17zm-29.753-121l23.637 65H383v-48.5c0-9.098 7.402-16.5 16.5-16.5h66.747zM143.5 396c-17.92 0-32.5-14.58-32.5-32.5s14.58-32.5 32.5-32.5 32.5 14.58 32.5 32.5-14.58 32.5-32.5 32.5zm272 0c-17.918 0-32.496-14.576-32.5-32.494v-.012c.004-17.918 14.582-32.494 32.5-32.494s32.496 14.576 32.5 32.494v.012C447.996 381.424 433.418 396 415.5 396zm72-40h-25.098c-3.607-22.64-23.263-40-46.902-40-12.564 0-23.996 4.912-32.5 12.906V267h111.754a56.285 56.285 0 011.173 9H487.5c-12.958 0-23.5 10.542-23.5 23.5s10.542 23.5 23.5 23.5h8.5v24.5c0 4.687-3.813 8.5-8.5 8.5z"/><path d="M63.5 235h256c12.958 0 23.5-10.542 23.5-23.5v-16c0-12.958-10.542-23.5-23.5-23.5h-256C50.542 172 40 182.542 40 195.5v16c0 12.958 10.542 23.5 23.5 23.5zM184 220h-57v-33h57v33zm15-33h57v33h-57v-33zm129 8.5v16c0 4.687-3.813 8.5-8.5 8.5H271v-33h48.5c4.687 0 8.5 3.813 8.5 8.5zm-273 0c0-4.687 3.813-8.5 8.5-8.5H112v33H63.5c-4.687 0-8.5-3.813-8.5-8.5v-16zM415.5 348c-8.547 0-15.5 6.953-15.5 15.5s6.953 15.5 15.5 15.5 15.5-6.953 15.5-15.5-6.953-15.5-15.5-15.5zm0 16a.5.5 0 110-1 .5.5 0 010 1zm-272-16c-8.547 0-15.5 6.953-15.5 15.5s6.953 15.5 15.5 15.5 15.5-6.953 15.5-15.5-6.953-15.5-15.5-15.5zm0 16a.5.5 0 110-1 .5.5 0 010 1zm56.5-32.5a7.5 7.5 0 007.5 7.5h136a7.5 7.5 0 000-15h-136a7.5 7.5 0 00-7.5 7.5zM79.5 324h-40a7.5 7.5 0 000 15h40a7.5 7.5 0 000-15z"/></svg><svg viewBox="0 0 100 100" id="left--one" xmlns="http://www.w3.org/2000/svg"><path d="M33.934 54.458l30.822 27.938a1.996 1.996 0 002.826-.138 1.999 1.999 0 00-.139-2.824l-29.642-26.87L64.67 22.921a1.998 1.998 0 10-2.963-2.685L33.768 51.059a1.994 1.994 0 00-.475 1.723 1.988 1.988 0 00.641 1.676z"/></svg><svg viewBox="0 0 24 24" id="refresh" xmlns="http://www.w3.org/2000/svg"><path d="M11 14a7 7 0 00-7 7h6.5m8-.764A3 3 0 1119.33 17m.67-2.5v3h-3M15 7a4 4 0 11-8 0 4 4 0 018 0z"/></svg><svg viewBox="0 0 100 100" transform="rotate(180)" id="right--one" xmlns="http://www.w3.org/2000/svg"><path d="M33.934 54.458l30.822 27.938a1.996 1.996 0 002.826-.138 1.999 1.999 0 00-.139-2.824l-29.642-26.87L64.67 22.921a1.998 1.998 0 10-2.963-2.685L33.768 51.059a1.994 1.994 0 00-.475 1.723 1.988 1.988 0 00.641 1.676z"/></svg><svg viewBox="0 0 24 24" transform="rotate(180)" id="right-arrow" xmlns="http://www.w3.org/2000/svg"><path d="M8.601 16.53a.75.75 0 001.06-1.06L8.6 16.53zM5.53 11.346a.75.75 0 00-1.06 1.062l1.06-1.062zm-1.043-.016a.75.75 0 101.026 1.094L4.487 11.33zm5.157-2.782a.75.75 0 10-1.026-1.094l1.026 1.094zM5 11.126a.75.75 0 000 1.5v-1.5zm10.37.75l.002-.75h-.002v.75zm2.563-1.053l.528.532-.528-.532zM19.75 8.27a.75.75 0 00-1.5-.004l1.5.004zm-10.09 7.2l-4.13-4.124-1.06 1.062 4.131 4.124 1.06-1.062zm-4.147-3.046l4.131-3.876-1.026-1.094-4.131 3.876 1.026 1.094zM5 12.626h10.37v-1.5H5v1.5zm10.368 0a4.37 4.37 0 003.093-1.27l-1.057-1.064c-.54.536-1.27.836-2.032.834l-.004 1.5zm3.093-1.27a4.369 4.369 0 001.289-3.087l-1.5-.004a2.87 2.87 0 01-.846 2.027l1.057 1.063z"/></svg><svg viewBox="0 0 23.382 23.382" id="route" xmlns="http://www.w3.org/2000/svg"><path d="M14.58 15.181c.438-.732 1.082-1.107 1.936-1.117.854-.01 1.285-.445 1.299-1.301.012-.852.383-1.496 1.115-1.932.734-.438.893-1.027.475-1.773-.416-.744-.416-1.488 0-2.234.418-.744.26-1.332-.475-1.77-.732-.439-1.104-1.082-1.115-1.938-.014-.852-.445-1.287-1.299-1.297-.854-.012-1.498-.385-1.936-1.117-.438-.734-1.027-.893-1.771-.475-.744.416-1.49.416-2.234 0C9.83-.19 9.241-.032 8.803.702c-.437.733-1.082 1.106-1.935 1.117-.852.01-1.285.445-1.297 1.297-.014.856-.385 1.498-1.117 1.938-.734.438-.895 1.025-.475 1.77.418.746.418 1.49 0 2.234-.42.746-.26 1.336.475 1.773.732.436 1.104 1.08 1.117 1.932.012.855.445 1.291 1.297 1.301.854.01 1.498.385 1.936 1.117.438.734 1.027.893 1.771.473.744-.412 1.49-.412 2.234 0 .744.419 1.334.261 1.771-.473zm-2.886-2.567a4.673 4.673 0 11-.002-9.346 4.673 4.673 0 01.002 9.346z"/><path d="M6.793 14.749c-.898 0-1.018-.418-1.018-.418l-3.507 6.893 2.812-.316 1.555 2.34s3.24-6.76 3.24-6.715c-1.679-.042-1.011-1.739-3.082-1.784zm10.77-.148c-2.562.268-2.041.904-2.627 1.398-.674.719-1.516.578-1.516.578l3.955 6.805.973-2.52 2.766.361-3.551-6.622zM12.67 6.909l-.978-1.98-.979 1.98-2.189.32 1.582 1.543-.373 2.182 1.959-1.029 1.959 1.029-.373-2.182 1.582-1.543z"/></svg><svg version="1.1" id="toilet" viewBox="0 0 512 512" xml:space="preserve" xmlns="http://www.w3.org/2000/svg"><g id="gSVGRepo_iconCarrier"><style>.gst0{fill:#fff}</style><path class="gst0" d="M0 459.214h327.252v-89.727C411.71 358.924 512 226.969 512 142.524H0v316.69zM477.311 52.786H0v63.331h512V87.462c0-19.143-15.535-34.676-34.689-34.676z"/></g></svg><svg viewBox="0 0 24 24" id="us" xmlns="http://www.w3.org/2000/svg"><path fill-rule="evenodd" clip-rule="evenodd" d="M16.5 7.063C16.5 10.258 14.57 13 12 13c-2.572 0-4.5-2.742-4.5-5.938C7.5 3.868 9.16 2 12 2s4.5 1.867 4.5 5.063zM4.102 20.142C4.487 20.6 6.145 22 12 22c5.855 0 7.512-1.4 7.898-1.857a.416.416 0 00.09-.317C19.9 18.944 19.106 15 12 15s-7.9 3.944-7.989 4.826a.416.416 0 00.091.317z"/></svg><svg viewBox="0 0 20 20" id="user" xmlns="http://www.w3.org/2000/svg"><path d="M16.563 18H3.438c-.706 0-1.228-.697-.961-1.338C3.713 13.698 6.617 12 10 12c3.384 0 6.288 1.698 7.524 4.662.267.641-.255 1.338-.961 1.338M5.917 6c0-2.206 1.832-4 4.083-4 2.252 0 4.083 1.794 4.083 4S12.252 10 10 10c-2.251 0-4.083-1.794-4.083-4m14.039 11.636c-.742-3.359-3.064-5.838-6.119-6.963 1.619-1.277 2.563-3.342 2.216-5.603-.402-2.623-2.63-4.722-5.318-5.028C7.023-.381 3.875 2.449 3.875 6c0 1.89.894 3.574 2.289 4.673-3.057 1.125-5.377 3.604-6.12 6.963C-.226 18.857.779 20 2.054 20h15.892c1.276 0 2.28-1.143 2.01-2.364" fill-rule="evenodd"/></svg><svg viewBox="0 0 32 32" id="water" xmlns="http://www.w3.org/2000/svg"><path d="M25.378 19.75C26.885 25.777 22.216 31 16.003 31s-10.9-5.149-9.375-11.25C7.565 16 12.253 10.375 16.003 1c3.75 9.374 8.438 15 9.375 18.75z"/></svg></svg>